<svg width="153" height="31" viewBox="0 0 153 31" fill="none" xmlns="http://www.w3.org/2000/svg">
<path d="M10.636 23.4242C14.1813 23.4242 17.5751 21.5455 19.0902 18.3638L15.4843 16.3336C14.5449 18.0911 12.9086 19.2122 10.4542 19.2122C7.03003 19.2122 4.60587 16.5154 4.60587 12.8185C4.60587 9.12168 7.06034 6.4248 10.4542 6.4248C12.9086 6.4248 14.4843 7.54597 15.4843 9.30349L19.0902 7.27325C17.5751 4.09154 14.1813 2.21282 10.636 2.21282C4.69678 2.21282 0.0605705 6.90963 0.0605705 12.8185C0.0605705 18.7274 4.69678 23.4242 10.636 23.4242ZM20.8707 1.09164V23H25.1736V1.09164H20.8707ZM31.0759 5.75815C32.5304 5.75815 33.7121 4.57637 33.7121 3.09158C33.7121 1.63708 32.5304 0.424998 31.0759 0.424998C29.6214 0.424998 28.4093 1.63708 28.4093 3.09158C28.4093 4.57637 29.6214 5.75815 31.0759 5.75815ZM28.9244 8.0005V23H33.2273V8.0005H28.9244ZM55.2805 7.45507C52.5837 7.45507 50.4625 8.72775 49.5232 10.7883C48.6444 8.72775 46.5536 7.45507 43.6749 7.45507C38.8266 7.45507 36.3721 10.9701 36.3721 15.1518V23H40.675V15.8487C40.675 13.5761 41.6143 11.6367 44.0082 11.6367C46.3415 11.6367 47.3414 13.5458 47.3414 15.8487V23H51.6443V15.8184C51.6443 13.5458 52.6443 11.6367 54.9775 11.6367C57.3411 11.6367 58.341 13.5761 58.341 15.879V23H62.6439V15.1518C62.6439 10.9701 60.1592 7.45507 55.2805 7.45507ZM71.8657 23.3939C73.9262 23.3939 75.5625 22.5758 76.6231 21.2425V23H80.7139V15.4548C80.7139 10.9398 77.2594 7.54597 72.5626 7.54597C67.9567 7.54597 64.4417 11.1519 64.4417 15.4548C64.4417 19.8183 67.5022 23.3939 71.8657 23.3939ZM72.5626 19.3638C70.3506 19.3638 68.7446 17.6062 68.7446 15.4851C68.7446 13.364 70.3506 11.6064 72.5626 11.6064C74.7747 11.6064 76.411 13.364 76.411 15.4851C76.411 17.6062 74.7747 19.3638 72.5626 19.3638ZM96.0796 23V14.8791H105.382V23H109.806V2.60674H105.382V10.8186H96.0796V2.60674H91.6555V23H96.0796ZM120.664 23.3939C125.269 23.3939 128.815 19.8183 128.815 15.4548C128.815 11.1519 125.3 7.54597 120.664 7.54597C116.088 7.54597 112.543 11.1216 112.543 15.4548C112.543 19.8183 116.058 23.3939 120.664 23.3939ZM120.664 19.3638C118.451 19.3638 116.845 17.6062 116.845 15.4851C116.845 13.364 118.451 11.6064 120.664 11.6064C122.876 11.6064 124.512 13.364 124.512 15.4851C124.512 17.6062 122.876 19.3638 120.664 19.3638ZM133.404 5.75815C134.858 5.75815 136.04 4.57637 136.04 3.09158C136.04 1.63708 134.858 0.424998 133.404 0.424998C131.949 0.424998 130.737 1.63708 130.737 3.09158C130.737 4.57637 131.949 5.75815 133.404 5.75815ZM131.222 8.0005V23.6363C131.222 25.1211 130.283 26.1514 128.343 26.1514L128.586 30.2119C133.101 30.2119 135.525 27.5756 135.525 23.7879V8.0005H131.222ZM145.532 23.3939C148.713 23.3939 151.198 21.8485 152.501 19.1516L149.198 17.485C148.501 18.8789 147.138 19.6668 145.501 19.6668C143.35 19.6668 141.804 18.3335 141.501 16.3336H152.653V15.0609C152.653 10.9701 149.895 7.45507 145.138 7.45507C140.501 7.45507 137.35 11.0307 137.35 15.3639C137.35 20.1516 140.865 23.3939 145.532 23.3939ZM141.683 13.9397C141.986 12.4246 143.229 11.2125 145.107 11.2125C146.925 11.2125 148.198 12.3943 148.38 13.9397H141.683Z" fill="url(#paint0_linear_45_493)"/>
<defs>
<linearGradient id="paint0_linear_45_493" x1="-1" y1="10.9724" x2="153.986" y2="13.7767" gradientUnits="userSpaceOnUse">
<stop stop-color="#007DFE"/>
<stop offset="1" stop-color="#3AA2FF"/>
</linearGradient>
</defs>
</svg>
